<svg width="62" height="62" viewBox="0 0 62 62" fill="none" xmlns="http://www.w3.org/2000/svg">
<path d="M19.7521 17.7465L16.8277 14.8207L30.9999 0.648438L45.1722 14.8207L42.2478 17.7465L33.0685 8.56719V51.8729H28.9314V8.56719L19.7521 17.7465ZM56.8945 44.0307V56.7455C56.8897 56.8697 56.8382 56.9875 56.7502 57.0752C56.6622 57.1629 56.5442 57.2142 56.4201 57.2186H5.52377C5.40587 57.2105 5.2959 57.1563 5.21761 57.0678C5.13933 56.9793 5.09902 56.8635 5.10541 56.7455V44.0307H0.968297V56.7455C0.963562 57.9598 1.44038 59.1265 2.29427 59.9898C3.14817 60.8532 4.30949 61.3429 5.52377 61.3516H56.4201C57.6425 61.3505 58.8147 60.8645 59.6792 60.0002C60.5438 59.1359 61.0301 57.9639 61.0316 56.7414V44.0266L56.8945 44.0307Z" fill="#0160E0"/>
</svg>
